<svg xmlns="http://www.w3.org/2000/svg" viewBox="0 0 100 100"><defs><style>.cls-1{fill:#6f8dd2}.cls-2{fill:#75c7ec}</style></defs><g id="_002-science" data-name="002-science"><g id="Group_40" data-name="Group 40"><g id="Group_39" data-name="Group 39"><path id="Path_12" data-name="Path 12" class="cls-1" d="M75 47.917v-37.5A10.429 10.429 0 0 0 64.585 0H18.751a2.084 2.084 0 0 0-1.473.61L.611 17.277A2.083 2.083 0 0 0 0 18.75v70.834A10.429 10.429 0 0 0 10.418 100h54.166A10.429 10.429 0 0 0 75 89.584V81.25h-4.165v8.333a6.25 6.25 0 0 1-6.25 6.25H10.418a6.25 6.25 0 0 1-6.25-6.25v-69.97L19.614 4.167h44.971a6.25 6.25 0 0 1 6.25 6.25v37.5H75z" transform="translate(-.001)"/></g></g><g id="Group_42" data-name="Group 42" transform="translate(10.417 2.083)"><g id="Group_41" data-name="Group 41"><path id="Path_13" data-name="Path 13" class="cls-1" d="M59.584 10.667v12.5A2.083 2.083 0 0 1 57.5 25.25h-4.166v4.167H57.5a6.25 6.25 0 0 0 6.25-6.25v-12.5z" transform="translate(-53.334 -10.667)"/></g></g><g id="Group_44" data-name="Group 44" transform="translate(14.584 37.5)"><g id="Group_43" data-name="Group 43"><path id="Path_14" data-name="Path 14" class="cls-2" d="M103.226 200.944l-8.333-8.333A2.082 2.082 0 0 0 93.42 192h-8.334a2.084 2.084 0 0 0-1.473.61l-8.333 8.333a2.083 2.083 0 0 0 0 2.946l8.333 8.333a2.083 2.083 0 0 0 1.473.61h8.334a2.084 2.084 0 0 0 1.473-.61l8.333-8.333a2.083 2.083 0 0 0 0-2.945zm-10.669 7.723h-6.608l-6.25-6.25 6.25-6.25h6.608l6.25 6.25z" transform="translate(-74.67 -192)"/></g></g><g id="Group_46" data-name="Group 46" transform="translate(14.584 54.167)"><g id="Group_45" data-name="Group 45"><path id="Path_15" data-name="Path 15" class="cls-2" d="M103.226 286.277l-8.333-8.333a2.082 2.082 0 0 0-1.473-.61h-8.334a2.084 2.084 0 0 0-1.473.61l-8.333 8.333a2.083 2.083 0 0 0 0 2.946l8.333 8.333a2.083 2.083 0 0 0 1.473.61h8.334a2.084 2.084 0 0 0 1.473-.61l8.333-8.333a2.083 2.083 0 0 0 0-2.946zM92.557 294h-6.608l-6.25-6.25 6.25-6.25h6.608l6.25 6.25z" transform="translate(-74.67 -277.333)"/></g></g><g id="Group_48" data-name="Group 48" transform="translate(31.251 45.834)"><g id="Group_47" data-name="Group 47"><path id="Path_16" data-name="Path 16" class="cls-2" d="M188.559 243.611l-8.333-8.333a2.083 2.083 0 0 0-1.473-.61h-8.333a2.084 2.084 0 0 0-1.473.61l-8.333 8.333a2.083 2.083 0 0 0 0 2.946l8.333 8.333a2.082 2.082 0 0 0 1.473.61h8.333a2.084 2.084 0 0 0 1.473-.61l8.333-8.333a2.083 2.083 0 0 0 0-2.946zm-10.669 7.723h-6.608l-6.25-6.25 6.25-6.25h6.608l6.25 6.25z" transform="translate(-160.003 -234.667)"/></g></g><g id="Group_50" data-name="Group 50" transform="translate(12.5 29.167)"><g id="Group_49" data-name="Group 49"><path id="Path_17" data-name="Path 17" class="cls-2" d="M69.641 149.944a2.082 2.082 0 0 0-1.473-.61H64v4.166h3.3l7.723 7.723 2.946-2.946z" transform="translate(-64.001 -149.334)"/></g></g><g id="Group_52" data-name="Group 52" transform="translate(48.527 31.25)"><g id="Group_51" data-name="Group 51"><path id="Path_18" data-name="Path 18" class="cls-2" d="M258.266 160v5.387l-9.806 9.806 2.946 2.946 10.417-10.417a2.083 2.083 0 0 0 .61-1.473V160z" transform="translate(-248.46 -160.001)"/></g></g><g id="Group_54" data-name="Group 54" transform="translate(31.86 71.444)"><g id="Group_53" data-name="Group 53"><path id="Path_19" data-name="Path 19" class="cls-2" d="M173.795 373.515l-7.723-7.723-2.946 2.946 8.333 8.333a2.083 2.083 0 0 0 1.473.61h8.333v-4.167z" transform="translate(-163.126 -365.792)"/></g></g><g id="Group_56" data-name="Group 56" transform="translate(58.797 37.501)"><g id="Group_55" data-name="Group 55"><path id="Path_20" data-name="Path 20" class="cls-2" d="M341.632 198.786l-6.173-6.173a2.083 2.083 0 0 0-2.946 0l-30.865 30.862a2.083 2.083 0 0 0 0 2.946l6.173 6.173a2.082 2.082 0 0 0 2.946 0l30.865-30.863a2.083 2.083 0 0 0 0-2.945zm-32.338 29.39l-3.227-3.227 27.917-27.917 3.227 3.227z" transform="translate(-301.038 -192.003)"/></g></g><g id="Group_58" data-name="Group 58" transform="translate(54.167 69.627)"><g id="Group_57" data-name="Group 57"><path id="Path_21" data-name="Path 21" class="cls-2" d="M289.391 361.576l-6.015 2.579 2.579-6.025-3.829-1.64-4.623 10.8a2.083 2.083 0 0 0 1.915 2.9 2.061 2.061 0 0 0 .813-.16l10.8-4.631z" transform="translate(-277.335 -356.49)"/></g></g><g id="Group_60" data-name="Group 60" transform="translate(56.25 8.333)"><g id="Group_59" data-name="Group 59"><path id="Path_22" data-name="Path 22" class="cls-1" d="M292.168 42.667H288v4.167h4.167a2.083 2.083 0 0 1 2.083 2.083v4.167h4.167v-4.167a6.25 6.25 0 0 0-6.249-6.25z" transform="translate(-288.001 -42.667)"/></g></g><g id="Group_62" data-name="Group 62" transform="translate(47.916 8.333)"><g id="Group_61" data-name="Group 61"><path id="Rectangle_15" data-name="Rectangle 15" class="cls-1" d="M0 0h4.167v4.167H0z"/></g></g><g id="Group_64" data-name="Group 64" transform="translate(10.416 87.5)"><g id="Group_63" data-name="Group 63"><path id="Rectangle_16" data-name="Rectangle 16" class="cls-1" d="M0 0h12.5v4.167H0z"/></g></g><g id="Group_66" data-name="Group 66" transform="translate(27.084 87.5)"><g id="Group_65" data-name="Group 65"><path id="Rectangle_17" data-name="Rectangle 17" class="cls-1" d="M0 0h4.167v4.167H0z"/></g></g></g></svg>