<svg id="_001-flask" data-name="001-flask" xmlns="http://www.w3.org/2000/svg" viewBox="0 0 100 114.286"><defs><style>.cls-1{fill:#75c7ec}.cls-2{fill:#6f8dd2}</style></defs><g id="Group_2" data-name="Group 2" transform="translate(38.095 19.048)"><g id="Group_1" data-name="Group 1"><path id="Path_1" data-name="Path 1" class="cls-1" d="M252.666 85.333h-47.619a2.381 2.381 0 0 0-2.381 2.381v4.762h4.762v-2.381h39.49l-5.46 5.46a2.38 2.38 0 0 0-.7 1.683v52.381a7.143 7.143 0 0 1-7.143 7.143h-19.044a7.143 7.143 0 0 1-7.143-7.143v-33.334h-4.762v33.333a11.919 11.919 0 0 0 11.9 11.9h19.048a11.919 11.919 0 0 0 11.9-11.9V98.224l8.826-8.826a2.381 2.381 0 0 0-1.683-4.064z" transform="translate(-202.666 -85.333)"/></g></g><g id="Group_4" data-name="Group 4" transform="translate(85.714 38.095)"><g id="Group_3" data-name="Group 3"><path id="Path_2" data-name="Path 2" class="cls-2" d="M418.381 170.667H416v4.762h2.381a2.381 2.381 0 0 1 0 4.762H416v4.762h2.381a7.143 7.143 0 0 0 0-14.286z" transform="translate(-416 -170.667)"/></g></g><g id="Group_6" data-name="Group 6" transform="translate(85.714 47.619)"><g id="Group_5" data-name="Group 5"><path id="Path_3" data-name="Path 3" class="cls-2" d="M418.381 213.333H416v4.762h2.381a2.381 2.381 0 0 1 0 4.762H416v4.762h2.381a7.143 7.143 0 0 0 0-14.286z" transform="translate(-416 -213.333)"/></g></g><g id="Group_8" data-name="Group 8" transform="translate(85.714 57.143)"><g id="Group_7" data-name="Group 7"><path id="Path_4" data-name="Path 4" class="cls-2" d="M418.381 256H416v4.762h2.381a2.381 2.381 0 0 1 0 4.762H416v4.762h2.381a7.143 7.143 0 0 0 0-14.286z" transform="translate(-416 -256)"/></g></g><g id="Group_10" data-name="Group 10" transform="translate(85.714 66.667)"><g id="Group_9" data-name="Group 9"><path id="Path_5" data-name="Path 5" class="cls-2" d="M418.381 298.667H416v4.762h2.381a2.381 2.381 0 0 1 0 4.762H416v4.762h2.381a7.143 7.143 0 0 0 0-14.286z" transform="translate(-416 -298.667)"/></g></g><g id="Group_14" data-name="Group 14" transform="translate(14.286 28.571)"><g id="Group_13" data-name="Group 13"><path id="Path_7" data-name="Path 7" class="cls-2" d="M134.828 128h-22.161A16.688 16.688 0 0 0 96 144.667v2.381h4.762v-2.381a11.919 11.919 0 0 1 11.9-11.9h19.5a8.138 8.138 0 0 1-8.333 7.143H112.85a2.381 2.381 0 0 0-2.348 2c-.086.5-2.226 12.381-12.031 12.381v4.762c9.888 0 14.7-8.517 16.288-14.376h9.079c10.576 0 13.371-9.345 13.371-14.286a2.381 2.381 0 0 0-2.381-2.391z" transform="translate(-96 -128)"/></g></g><g id="Group_16" data-name="Group 16" transform="translate(14.286 64.286)"><g id="Group_15" data-name="Group 15"><path id="Path_8" data-name="Path 8" class="cls-2" d="M112.667 299.9a11.919 11.919 0 0 1-11.9-11.9H96a16.688 16.688 0 0 0 16.667 16.667h2.381V299.9h-2.381z" transform="translate(-96 -288)"/></g></g><g id="Group_18" data-name="Group 18" transform="translate(0 33.333)"><g id="Group_17" data-name="Group 17"><path id="Path_9" data-name="Path 9" class="cls-2" d="M36.762 187.429V154.1h14.286v-4.762H34.381A2.381 2.381 0 0 0 32 151.715v38.1a2.381 2.381 0 0 0 2.381 2.381h19.048v-4.762z" transform="translate(-32 -149.334)"/></g></g><g id="Group_20" data-name="Group 20" transform="translate(76.19 90.476)"><g id="Group_19" data-name="Group 19"><path id="Path_10" data-name="Path 10" class="cls-1" d="M382.857 405.333a9.524 9.524 0 0 1-9.524 9.524v4.762a14.3 14.3 0 0 0 14.286-14.286z" transform="translate(-373.333 -405.333)"/></g></g><g id="Group_22" data-name="Group 22" transform="translate(76.19 90.476)"><g id="Group_21" data-name="Group 21"><path id="Path_11" data-name="Path 11" class="cls-1" d="M392.381 405.333a19.069 19.069 0 0 1-19.047 19.048v4.762a23.836 23.836 0 0 0 23.81-23.81z" transform="translate(-373.334 -405.333)"/></g></g><g id="Group_24" data-name="Group 24" transform="translate(40.475)"><g id="Group_23" data-name="Group 23"><path id="Rectangle_7" data-name="Rectangle 7" class="cls-1" d="M0 0h4.762v4.762H0z"/></g></g><g id="Group_26" data-name="Group 26" transform="translate(45.239 4.762)"><g id="Group_25" data-name="Group 25"><path id="Rectangle_8" data-name="Rectangle 8" class="cls-1" d="M0 0h4.762v4.762H0z"/></g></g><g id="Group_28" data-name="Group 28" transform="translate(64.286 9.524)"><g id="Group_27" data-name="Group 27"><path id="Rectangle_9" data-name="Rectangle 9" class="cls-1" d="M0 0h4.762v4.762H0z"/></g></g><g id="Group_30" data-name="Group 30" transform="translate(69.047 4.762)"><g id="Group_29" data-name="Group 29"><path id="Rectangle_10" data-name="Rectangle 10" class="cls-1" d="M0 0h4.762v4.762H0z"/></g></g><g id="Group_32" data-name="Group 32" transform="translate(71.428 38.096)"><g id="Group_31" data-name="Group 31"><path id="Rectangle_11" data-name="Rectangle 11" class="cls-1" d="M0 0h7.143v4.762H0z"/></g></g><g id="Group_34" data-name="Group 34" transform="translate(66.667 50)"><g id="Group_33" data-name="Group 33"><path id="Rectangle_12" data-name="Rectangle 12" class="cls-1" d="M0 0h11.904v4.762H0z"/></g></g><g id="Group_36" data-name="Group 36" transform="translate(71.428 61.904)"><g id="Group_35" data-name="Group 35"><path id="Rectangle_13" data-name="Rectangle 13" class="cls-1" d="M0 0h7.143v4.762H0z"/></g></g><g id="Group_38" data-name="Group 38" transform="translate(66.667 73.81)"><g id="Group_37" data-name="Group 37"><path id="Rectangle_14" data-name="Rectangle 14" class="cls-1" d="M0 0h11.904v4.762H0z"/></g></g></svg>