<svg xmlns="http://www.w3.org/2000/svg" viewBox="0 0 538 441"><defs><filter id="a" x="0" y="0" width="538" height="441" filterUnits="userSpaceOnUse"><feOffset dx="-10" dy="-10"/><feGaussianBlur stdDeviation="10" result="blur"/><feFlood flood-opacity=".2"/><feComposite operator="in" in2="blur"/><feComposite in="SourceGraphic"/></filter></defs><path data-name="Subtraction 1" d="M-3830-3398h-478a387.59 387.59 0 0 1 2.016-38.963 382.7 382.7 0 0 1 5.819-37.836 379.635 379.635 0 0 1 22.283-71.524 381.549 381.549 0 0 1 35.2-64.719 384.229 384.229 0 0 1 46.586-56.384 384.19 384.19 0 0 1 56.441-46.518 381.518 381.518 0 0 1 64.767-35.122 379.608 379.608 0 0 1 71.562-22.2 382.554 382.554 0 0 1 37.851-5.772A387.594 387.594 0 0 1-3926.5-3779a382.832 382.832 0 0 1 96.5 12.31V-3398z" transform="translate(4348 3819)" fill="#6f8dd2" filter="url(#a)"/></svg>